<svg width="354" height="375" viewBox="0 0 354 375" fill="none" xmlns="http://www.w3.org/2000/svg">
<path d="M55.4505 70.3109L1.04744 238.338C-0.227976 242.277 0.617464 246.596 3.28418 249.763L104.377 369.837C107.111 373.085 111.359 374.646 115.546 373.942L286.976 345.124C291.301 344.397 294.885 341.369 296.323 337.226L352.976 174.053C354.364 170.057 353.544 165.625 350.82 162.388L218.067 4.71058C215.412 1.5569 211.324 -0.0130526 207.241 0.552779L189.353 3.03144C184.909 3.64718 181.18 6.69009 179.685 10.9199L169.702 39.1723C168.236 43.3217 164.616 46.3357 160.27 47.0258L64.9852 62.1558C60.5258 62.8639 56.8413 66.0152 55.4505 70.3109Z" fill="#D41718"/>
</svg>
