<svg width="435" height="451" viewBox="0 0 435 451" fill="none" xmlns="http://www.w3.org/2000/svg">
<path d="M82.4151 93.334L1.11783 300.082C-0.493846 304.181 0.269194 308.833 3.10571 312.202L115.892 446.165C118.792 449.61 123.376 451.141 127.764 450.13L341.526 400.906C345.301 400.036 348.425 397.398 349.913 393.821L433.598 192.654C435.322 188.51 434.589 183.75 431.699 180.317L283.706 4.53636C280.88 1.18018 276.448 -0.366442 272.148 0.502998L246.593 5.66975C242.705 6.45578 239.457 9.11207 237.915 12.7664L221.376 51.96C219.865 55.5424 216.711 58.1702 212.915 59.0108L90.9884 86.0091C87.09 86.8723 83.8763 89.6181 82.4151 93.334Z" fill="#FFE4E4"/>
</svg>
